<svg width="32" height="32" viewBox="0 0 32 32" fill="none" xmlns="http://www.w3.org/2000/svg">
  <rect width="32" height="32" rx="4" fill="#3B82F6"/>
  <path d="M8 16C8 11.5817 11.5817 8 16 8C20.4183 8 24 11.5817 24 16C24 20.4183 20.4183 24 16 24C11.5817 24 8 20.4183 8 16Z" fill="white"/>
  <path d="M13.3333 13.3333H18.6667V14.6667H17.3333V18.6667H16V14.6667H14.6667V18.6667H13.3333V13.3333Z" fill="#3B82F6"/>
  <path d="M16 12C16.7364 12 17.3333 11.4031 17.3333 10.6667C17.3333 9.93029 16.7364 9.33333 16 9.33333C15.2636 9.33333 14.6667 9.93029 14.6667 10.6667C14.6667 11.4031 15.2636 12 16 12Z" fill="#3B82F6"/>
</svg>