<svg width="192" height="192" viewBox="0 0 192 192" fill="none" xmlns="http://www.w3.org/2000/svg">
  <rect width="192" height="192" rx="24" fill="#3B82F6"/>
  <path d="M48 96C48 69.4903 69.4903 48 96 48C122.51 48 144 69.4903 144 96C144 122.51 122.51 144 96 144C69.4903 144 48 122.51 48 96Z" fill="white"/>
  <path d="M80 80H112V88H104V112H96V88H88V112H80V80Z" fill="#3B82F6"/>
  <path d="M96 72C99.3137 72 102 69.3137 102 66C102 62.6863 99.3137 60 96 60C92.6863 60 90 62.6863 90 66C90 69.3137 92.6863 72 96 72Z" fill="#3B82F6"/>
</svg>