<svg width="512" height="512" viewBox="0 0 512 512" fill="none" xmlns="http://www.w3.org/2000/svg">
  <rect width="512" height="512" rx="64" fill="#3B82F6"/>
  <path d="M128 256C128 185.307 185.307 128 256 128C326.693 128 384 185.307 384 256C384 326.693 326.693 384 256 384C185.307 384 128 326.693 128 256Z" fill="white"/>
  <path d="M213.333 213.333H298.667V234.667H277.333V298.667H256V234.667H234.667V298.667H213.333V213.333Z" fill="#3B82F6"/>
  <path d="M256 192C265.205 192 272.667 184.538 272.667 175.333C272.667 166.128 265.205 158.667 256 158.667C246.795 158.667 239.333 166.128 239.333 175.333C239.333 184.538 246.795 192 256 192Z" fill="#3B82F6"/>
</svg>